<?xml version="1.0" encoding="UTF-8"?>
<svg xmlns="http://www.w3.org/2000/svg" xmlns:xlink="http://www.w3.org/1999/xlink" width="107px" height="20px" viewBox="0 0 107 20" version="1.1">
<defs>
<clipPath id="clip1">
  <path d="M 7 2.578125 L 26 2.578125 L 26 17.511719 L 7 17.511719 Z M 7 2.578125 "/>
</clipPath>
<clipPath id="clip2">
  <path d="M 6 2.578125 L 28 2.578125 L 28 17.511719 L 6 17.511719 Z M 6 2.578125 "/>
</clipPath>
</defs>
<g id="surface1">
<path style="fill-rule:nonzero;fill:rgb(100%,100%,100%);fill-opacity:1;stroke-width:1.041618;stroke-linecap:butt;stroke-linejoin:miter;stroke:rgb(0%,0%,0%);stroke-opacity:1;stroke-miterlimit:4;" d="M 170.499827 237.862161 L 250.500854 237.862161 L 250.500854 252.86291 L 170.499827 252.86291 Z M 170.499827 237.862161 " transform="matrix(1.320784,0,0,1.244469,-224.533256,-295.301169)"/>
<path style=" stroke:none;fill-rule:nonzero;fill:rgb(0%,0%,0%);fill-opacity:1;" d="M 2.640625 2.578125 L 104.34375 2.578125 L 104.34375 17.511719 L 2.640625 17.511719 Z M 2.640625 2.578125 "/>
<path style=" stroke:none;fill-rule:nonzero;fill:rgb(67.058825%,69.411767%,66.666669%);fill-opacity:1;" d="M 2.640625 2.59375 L 2.640625 17.527344 L 29.5 17.527344 C 31.226562 15.347656 32.394531 12.816406 32.394531 10.058594 C 32.394531 7.320312 31.246094 4.761719 29.539062 2.59375 Z M 2.640625 2.59375 "/>
<g clip-path="url(#clip1)" clip-rule="nonzero">
<path style=" stroke:none;fill-rule:nonzero;fill:rgb(100%,100%,100%);fill-opacity:1;" d="M 25.800781 10.042969 C 25.804688 14.699219 21.800781 18.476562 16.859375 18.480469 C 11.917969 18.480469 7.910156 14.710938 7.90625 10.054688 C 7.90625 10.050781 7.90625 10.046875 7.90625 10.042969 C 7.902344 5.386719 11.90625 1.613281 16.847656 1.609375 C 21.789062 1.605469 25.796875 5.378906 25.800781 10.035156 C 25.800781 10.039062 25.800781 10.042969 25.800781 10.042969 Z M 25.800781 10.042969 "/>
</g>
<g clip-path="url(#clip2)" clip-rule="nonzero">
<path style=" stroke:none;fill-rule:nonzero;fill:rgb(0%,0%,0%);fill-opacity:1;" d="M 24.125 3.179688 C 26.109375 5.046875 27.101562 7.335938 27.101562 10.042969 C 27.101562 12.753906 26.128906 15.015625 24.175781 16.839844 C 22.109375 18.757812 19.664062 19.714844 16.839844 19.714844 C 14.050781 19.714844 11.648438 18.765625 9.632812 16.863281 C 7.613281 14.960938 6.605469 12.6875 6.605469 10.042969 C 6.605469 7.402344 7.613281 5.113281 9.632812 3.179688 C 11.597656 1.308594 14 0.375 16.839844 0.375 C 19.714844 0.375 22.140625 1.308594 24.125 3.179688 Z M 10.96875 4.4375 C 9.289062 6.03125 8.453125 7.902344 8.453125 10.046875 C 8.453125 12.191406 9.28125 14.046875 10.941406 15.609375 C 12.601562 17.171875 14.578125 17.957031 16.871094 17.957031 C 19.164062 17.957031 21.15625 17.164062 22.851562 15.585938 C 24.460938 14.117188 25.265625 12.273438 25.265625 10.046875 C 25.265625 7.839844 24.445312 5.964844 22.8125 4.421875 C 21.179688 2.882812 19.199219 2.113281 16.871094 2.113281 C 14.542969 2.113281 12.574219 2.886719 10.96875 4.4375 Z M 15.382812 9.105469 C 15.125 8.578125 14.742188 8.3125 14.230469 8.3125 C 13.324219 8.3125 12.871094 8.886719 12.871094 10.035156 C 12.871094 11.183594 13.324219 11.753906 14.230469 11.753906 C 14.828125 11.753906 15.253906 11.476562 15.507812 10.917969 L 16.761719 11.546875 C 16.164062 12.546875 15.269531 13.046875 14.074219 13.046875 C 13.152344 13.046875 12.414062 12.78125 11.859375 12.246094 C 11.300781 11.714844 11.023438 10.980469 11.023438 10.042969 C 11.023438 9.125 11.3125 8.394531 11.882812 7.851562 C 12.457031 7.3125 13.167969 7.042969 14.023438 7.042969 C 15.285156 7.042969 16.191406 7.511719 16.738281 8.449219 Z M 21.28125 9.105469 C 21.023438 8.578125 20.648438 8.3125 20.152344 8.3125 C 19.230469 8.3125 18.765625 8.886719 18.765625 10.035156 C 18.765625 11.183594 19.230469 11.753906 20.152344 11.753906 C 20.75 11.753906 21.167969 11.476562 21.40625 10.917969 L 22.691406 11.546875 C 22.09375 12.546875 21.199219 13.046875 20.003906 13.046875 C 19.082031 13.046875 18.347656 12.78125 17.792969 12.246094 C 17.238281 11.714844 16.960938 10.980469 16.960938 10.042969 C 16.960938 9.125 17.242188 8.394531 17.804688 7.851562 C 18.367188 7.3125 19.082031 7.042969 19.953125 7.042969 C 21.214844 7.042969 22.117188 7.511719 22.664062 8.449219 Z M 21.28125 9.105469 "/>
</g>
<path style=" stroke:none;fill-rule:nonzero;fill:rgb(100%,100%,100%);fill-opacity:1;" d="M 38.855469 9.203125 C 39.179688 9.203125 39.425781 9.136719 39.59375 9 C 39.761719 8.867188 39.847656 8.671875 39.847656 8.410156 C 39.847656 8.15625 39.761719 7.960938 39.59375 7.828125 C 39.425781 7.691406 39.179688 7.621094 38.855469 7.621094 L 37.71875 7.621094 L 37.71875 9.203125 L 38.855469 9.203125 M 38.925781 12.46875 C 39.339844 12.46875 39.648438 12.386719 39.855469 12.222656 C 40.066406 12.058594 40.171875 11.8125 40.171875 11.480469 C 40.171875 11.160156 40.070312 10.917969 39.863281 10.757812 C 39.65625 10.59375 39.34375 10.511719 38.925781 10.511719 L 37.71875 10.511719 L 37.71875 12.46875 L 38.925781 12.46875 M 40.839844 9.78125 C 41.28125 9.902344 41.625 10.125 41.867188 10.445312 C 42.109375 10.769531 42.230469 11.167969 42.230469 11.636719 C 42.230469 12.359375 41.96875 12.894531 41.449219 13.246094 C 40.929688 13.601562 40.136719 13.777344 39.078125 13.777344 L 35.660156 13.777344 L 35.660156 6.3125 L 38.75 6.3125 C 39.859375 6.3125 40.660156 6.46875 41.15625 6.78125 C 41.652344 7.09375 41.902344 7.597656 41.902344 8.285156 C 41.902344 8.648438 41.8125 8.960938 41.628906 9.214844 C 41.449219 9.46875 41.183594 9.660156 40.839844 9.78125 M 42.050781 6.3125 L 44.300781 6.3125 L 46.117188 8.972656 L 47.933594 6.3125 L 50.191406 6.3125 L 47.148438 10.632812 L 47.148438 13.777344 L 45.089844 13.777344 L 45.089844 10.632812 L 42.050781 6.3125 M 49.078125 10.101562 L 52.433594 10.101562 L 52.433594 11.558594 L 49.078125 11.558594 L 49.078125 10.101562 M 59.597656 6.546875 L 59.597656 8.125 C 59.15625 7.941406 58.730469 7.804688 58.3125 7.710938 C 57.894531 7.617188 57.503906 7.570312 57.132812 7.570312 C 56.640625 7.570312 56.277344 7.632812 56.042969 7.761719 C 55.808594 7.886719 55.6875 8.085938 55.6875 8.351562 C 55.6875 8.550781 55.765625 8.707031 55.925781 8.820312 C 56.085938 8.933594 56.375 9.027344 56.789062 9.105469 L 57.667969 9.273438 C 58.554688 9.4375 59.183594 9.691406 59.558594 10.03125 C 59.933594 10.371094 60.121094 10.855469 60.121094 11.480469 C 60.121094 12.304688 59.859375 12.917969 59.332031 13.324219 C 58.8125 13.722656 58.015625 13.921875 56.945312 13.921875 C 56.4375 13.921875 55.929688 13.878906 55.421875 13.789062 C 54.914062 13.699219 54.402344 13.566406 53.894531 13.386719 L 53.894531 11.761719 C 54.402344 12.015625 54.894531 12.207031 55.367188 12.335938 C 55.847656 12.464844 56.304688 12.527344 56.746094 12.527344 C 57.195312 12.527344 57.539062 12.457031 57.777344 12.316406 C 58.015625 12.175781 58.136719 11.976562 58.136719 11.71875 C 58.136719 11.484375 58.054688 11.304688 57.890625 11.175781 C 57.730469 11.050781 57.40625 10.9375 56.921875 10.835938 L 56.128906 10.671875 C 55.328125 10.511719 54.746094 10.257812 54.375 9.90625 C 54.007812 9.558594 53.824219 9.085938 53.824219 8.492188 C 53.824219 7.75 54.082031 7.175781 54.59375 6.777344 C 55.105469 6.375 55.84375 6.175781 56.804688 6.175781 C 57.246094 6.175781 57.695312 6.207031 58.15625 6.269531 C 58.621094 6.332031 59.101562 6.421875 59.597656 6.546875 M 66.773438 12.417969 L 63.554688 12.417969 L 63.046875 13.777344 L 60.980469 13.777344 L 63.933594 6.3125 L 66.386719 6.3125 L 69.34375 13.777344 L 67.277344 13.777344 L 66.773438 12.417969 M 64.070312 11.03125 L 66.253906 11.03125 L 65.164062 8.0625 L 64.070312 11.03125 "/>
</g>
</svg>
